{"title":"Dancingbear room full of dick suckers.mp4","uid":9022080,"size":1408595453,"categoryP":"porn","categoryS":"movie_clips","magnet":"?xt=urn:btih:8133e1b74642c01ad6b91ec2c4cc0018e82d66d9&amp;dn=Dancingbear+room+full+of+dick+suckers.mp4&amp;tr=udp%3A%2F%2Ftracker.openbittorrent.com%3A80&amp;tr=udp%3A%2F%2Fopen.demonii.com%3A1337&amp;tr=udp%3A%2F%2Ftracker.coppersurfer.tk%3A6969&amp;tr=udp%3A%2F%2Fexodus.desync.com%3A6969","seeders":0,"leechers":0,"uploader":null,"files":1,"time":1381288016,"description":" &lt;a href=&quot;\nhttp://www.hostpornpics.net/pornmg/share.php?id=EA04_5254ABA2&quot; rel=&quot;nofollow&quot; target=&quot;_NEW&quot;&gt;\nhttp://www.hostpornpics.net/pornmg/share.php?id=EA04_5254ABA2&lt;/a&gt;\n\n\ngirls having fun in a party by sucking dicks of several naked dudes..\n\n\nFormat : MPEG-4\nFormat profile : Base Media\nCodec ID : isom\nFile size : 1.31 GiB\nDuration : 1h 1mn\nOverall bit rate mode : Variable\nOverall bit rate : 3 069 Kbps\nEncoded date : UTC 2013-08-06 20:35:21\nTagged date : UTC 2013-08-06 20:35:21\nWriting application : Lavf53.32.100\n\nVideo\nID : 1\nFormat : AVC\nFormat/Info : Advanced Video Codec\nFormat profile : &lt;a class=&quot;__cf_email__&quot; href=&quot;/cdn-cgi/l/email-protection&quot; data-cfemail=&quot;460b272f28060a726876&quot;&gt;[email&amp;#160;protected]&lt;/a&gt;&lt;script cf-hash='f9e31' type=&quot;text/javascript&quot;&gt;\n/* &lt;![CDATA[ */!function(){try{var t=&quot;currentScript&quot;in document?document.currentScript:function(){for(var t=document.getElementsByTagName(&quot;script&quot;),e=t.length;e--;)if(t[e].getAttribute(&quot;cf-hash&quot;))return t[e]}();if(t&amp;&amp;t.previousSibling){var e,r,n,i,c=t.previousSibling,a=c.getAttribute(&quot;data-cfemail&quot;);if(a){for(e=&quot;&quot;,r=parseInt(a.substr(0,2),16),n=2;a.length-n;n+=2)i=parseInt(a.substr(n,2),16)^r,e+=String.fromCharCode(i);e=document.createTextNode(e),c.parentNode.replaceChild(e,c)}}}catch(u){}}();/* ]]&gt; */&lt;/script&gt;\nFormat settings, CABAC : Yes\nFormat settings, ReFrames : 6 frames\nCodec ID : avc1\nCodec ID/Info : Advanced Video Coding\nDuration : 1h 1mn\nBit rate : 3 000 Kbps\nWidth : 1 280 pixels\nHeight : 720 pixels\nDisplay aspect ratio : 16:9\nFrame rate mode : Constant\nFrame rate : 29.970 fps\nColor space : YUV\nChroma subsampling : 4:2:0\nBit depth : 8 bits\nScan type : Progressive\nBits/(Pixel*Frame) : 0.109\nStream size : 1.28 GiB (97%)\nWriting library : x264 core 124 r2019+178 69a0443\n\n\nAudio\nID : 2\nFormat : AAC\nFormat/Info : Advanced Audio Codec\nFormat profile : LC\nCodec ID : 40\nDuration : 1h 1mn\nBit rate mode : Variable\nBit rate : 74.7 Kbps\nMaximum bit rate : 96.0 Kbps\nChannel(s) : 2 channels\nChannel positions : Front: L R\nSampling rate : 44.1 KHz\nCompression mode : Lossy\nDelay relative to video : 67ms\nStream size : 32.7 MiB (2%)\nLanguage : English\nEncoded date : UTC 2013-08-06 20:35:21\nTagged date : UTC 2013-08-06 20:35:21","torrent":{"xt":"urn:btih:8133e1b74642c01ad6b91ec2c4cc0018e82d66d9","amp;dn":"Dancingbear+room+full+of+dick+suckers.mp4","amp;tr":["udp%3A%2F%2Ftracker.openbittorrent.com%3A80","udp%3A%2F%2Fopen.demonii.com%3A1337","udp%3A%2F%2Ftracker.coppersurfer.tk%3A6969","udp%3A%2F%2Fexodus.desync.com%3A6969"],"infoHash":"8133e1b74642c01ad6b91ec2c4cc0018e82d66d9","infoHashBuffer":{"type":"Buffer","data":[129,51,225,183,70,66,192,26,214,185,30,194,196,204,0,24,232,45,102,217]},"announce":[],"urlList":[]}}